<?xml version="1.0" encoding="UTF-8"?>
<svg id="Bold_EXP" data-name="Bold EXP" xmlns="http://www.w3.org/2000/svg" viewBox="0 0 32 32">
  <defs>
    <style>
      .cls-1 {
        fill: #fff;
      }
    </style>
  </defs>
  <path class="cls-1" d="M25.99,4V1.58c0-.32-.25-.58-.57-.58H6S1,6,1,6v20.5c0,.28.22.5.5.5h2.5s0,3.5,0,3.5c0,.28.22.5.5.5h25c.28,0,.5-.22.5-.5V4.5c0-.28-.22-.5-.5-.5h-3.51ZM7,3h17l-.07,21.96-20.93.04V7L7,3ZM28,29H6v-2.01s19.43-.03,19.43-.03c.28,0,.5-.22.5-.5l.06-20.46h2.01v23Z"/>
  <path class="cls-1" d="M6,18c-.55,0-1-.45-1-1v-5c0-.55.45-1,1-1s1,.45,1,1v5c0,.55-.45,1-1,1Z"/>
  <path class="cls-1" d="M9,20c-.55,0-1-.45-1-1v-9c0-.55.45-1,1-1s1,.45,1,1v9c0,.55-.45,1-1,1Z"/>
  <path class="cls-1" d="M12,18c-.55,0-1-.45-1-1v-5c0-.55.45-1,1-1s1,.45,1,1v5c0,.55-.45,1-1,1Z"/>
  <path class="cls-1" d="M15,22c-.55,0-1-.45-1-1V7c0-.55.45-1,1-1s1,.45,1,1v14c0,.55-.45,1-1,1Z"/>
  <path class="cls-1" d="M18,19c-.55,0-1-.45-1-1v-7c0-.55.45-1,1-1s1,.45,1,1v7c0,.55-.45,1-1,1Z"/>
  <path class="cls-1" d="M21,18c-.55,0-1-.45-1-1v-5c0-.55.45-1,1-1s1,.45,1,1v5c0,.55-.45,1-1,1Z"/>
</svg>