<?xml version="1.0" encoding="UTF-8"?>
<svg id="Bold_EXP" data-name="Bold EXP" xmlns="http://www.w3.org/2000/svg" viewBox="0 0 32 32">
  <defs>
    <style>
      .cls-1 {
        fill: #fff;
      }
    </style>
  </defs>
  <path class="cls-1" d="M5,10.99h1v-2h1v-2h4.01v2h1v2h-2v-2h-2v2h-1v6.01h1v2h2v-2h2v2h-1v2h-4.01v-2h-1v-2h-1v-6.01Z"/>
  <path class="cls-1" d="M12.02,13h4.01v2h-4.01v-2Z"/>
  <path class="cls-1" d="M16.04,17.01h2v2h2v-4.01h-2v-2h2v-4.01h-2v2h-2v-2h1v-2h4.01v2h1v4.01h-1v2h1v4.01h-1v2h-4.01v-2h-1v-2Z"/>
  <path class="cls-1" d="M25.99,4V1.58c0-.32-.25-.58-.57-.58H6S1,6,1,6v20.5c0,.28.22.5.5.5h2.5s0,3.5,0,3.5c0,.28.22.5.5.5h25c.28,0,.5-.22.5-.5V4.5c0-.28-.22-.5-.5-.5h-3.51ZM7,3h17l-.07,21.96-20.93.04V7L7,3ZM28,29H6v-2.01s19.43-.03,19.43-.03c.28,0,.5-.22.5-.5l.06-20.46h2.01v23Z"/>
</svg>