<svg style="background:transparent" xmlns="http://www.w3.org/2000/svg" id="Comp-1" viewBox="0 0 640 480" width="100%" height="100%" preserveAspectRatio="xMidYMid meet"><style>
@keyframes a0_t { 0% { transform: translate(55.5px,92.5px); } 80.417% { transform: translate(55.5px,92.5px); animation-timing-function: cubic-bezier(.3,0,.7,1); } 85.692% { transform: translate(55.5px,402.5px); } 100% { transform: translate(55.5px,402.5px); } }
@keyframes a0_v { 0% { visibility: hidden; animation-timing-function: steps(1); } 3.892% { visibility: visible; animation-timing-function: steps(1); } 87.225% { visibility: hidden; animation-timing-function: steps(1); } 100% { visibility: hidden; animation-timing-function: steps(1); } }
@keyframes a1_do { 0% { stroke-dashoffset: -546.6px; } 3.892% { stroke-dashoffset: -546.6px; animation-timing-function: cubic-bezier(.3,0,.7,1); } 41.667% { stroke-dashoffset: -1092.1px; animation-timing-function: cubic-bezier(.3,0,.7,1); } 42.917% { stroke-dashoffset: -1092.1px; animation-timing-function: cubic-bezier(.3,0,.7,1); } 63.058% { stroke-dashoffset: -1092.1px; animation-timing-function: cubic-bezier(.3,0,.7,1); } 75.558% { stroke-dashoffset: -546.6px; animation-timing-function: cubic-bezier(.2,0,.7,1); } 80.275% { stroke-dashoffset: -546.6px; } 100% { stroke-dashoffset: -546.6px; } }
@keyframes a1_d { 0% { d: path('M-66.4,-204.8C-66.4,-193.1,-66.4,24.7,-66.4,36.4C-66.4,36.4,-66.4,54.6,-66.4,54.6C-66.4,56.6,-66.4,58.5,-66.1,60.5C-65.3,66.1,-63.5,71.6,-60.4,76.3C-56,83.1,-49.1,87.5,-41.2,89C-31.9,90.8,-21.3,89.7,-13.4,84.1C-7.8,80.2,-4.1,74.2,-2,67.8C.8,59,0,49.7,0,40.6C0,37.5,-0.2,34.5,.2,31.4C.8,26.1,2.3,20.8,5,16.2C8.9,9.4,15.1,4.5,22.7,2.5C31.9,0,42.9,.7,51.2,5.7C60.8,11.4,65.9,22.9,66.3,33.9C66.4,36.1,66.1,38.4,65.6,40.6C64.5,46.5,62.2,52.3,58.3,57C52.1,64.5,42.7,67.6,33.2,67.6'); } 3.892% { d: path('M-66.4,-204.8C-66.4,-193.1,-66.4,24.7,-66.4,36.4C-66.4,36.4,-66.4,54.6,-66.4,54.6C-66.4,56.6,-66.4,58.5,-66.1,60.5C-65.3,66.1,-63.5,71.6,-60.4,76.3C-56,83.1,-49.1,87.5,-41.2,89C-31.9,90.8,-21.3,89.7,-13.4,84.1C-7.8,80.2,-4.1,74.2,-2,67.8C.8,59,0,49.7,0,40.6C0,37.5,-0.2,34.5,.2,31.4C.8,26.1,2.3,20.8,5,16.2C8.9,9.4,15.1,4.5,22.7,2.5C31.9,0,42.9,.7,51.2,5.7C60.8,11.4,65.9,22.9,66.3,33.9C66.4,36.1,66.1,38.4,65.6,40.6C64.5,46.5,62.2,52.3,58.3,57C52.1,64.5,42.7,67.6,33.2,67.6'); animation-timing-function: cubic-bezier(.2,0,.8,1); } 42.917% { d: path('M-66.4,-210.8C-66.4,-199.1,-66.4,24.7,-66.4,36.4C-66.4,36.4,-66.4,54.6,-66.4,54.6C-66.4,56.6,-66.4,58.5,-66.1,60.5C-65.3,66.1,-63.5,71.6,-60.4,76.3C-56,83.1,-49.1,87.5,-41.2,89C-31.9,90.8,-21.3,89.7,-13.4,84.1C-7.8,80.2,-4.1,74.2,-2,67.8C.8,59,0,49.7,0,40.6C0,37.5,-0.2,34.5,.2,31.4C.8,26.1,2.3,20.8,5,16.2C8.9,9.4,15.1,4.5,22.7,2.5C31.9,0,42.9,.7,51.2,5.7C60.8,11.4,65.9,22.9,66.3,33.9C66.4,36.1,66.1,38.4,65.6,40.6C64.5,46.5,62.2,52.3,58.3,57C52.1,64.5,42.7,67.6,33.2,67.6'); animation-timing-function: cubic-bezier(.3,0,.7,1); } 50.833% { d: path('M-66.3,-0.3C-66.3,11.4,-66.4,24.7,-66.4,36.4C-66.4,36.4,-66.4,54.6,-66.4,54.6C-66.4,56.6,-66.4,58.5,-66.1,60.5C-65.3,66.1,-63.5,71.6,-60.4,76.3C-56,83.1,-49.1,87.5,-41.2,89C-31.9,90.8,-21.3,89.7,-13.4,84.1C-7.8,80.2,-4.1,74.2,-2,67.7C.8,59,0,49.7,0,40.6C0,37.5,-0.2,34.5,.2,31.4C.8,26.1,2.3,20.8,5,16.2C8.9,9.4,15.1,4.5,22.7,2.5C31.9,0,42.9,.7,51.2,5.7C60.8,11.4,65.9,22.9,66.3,33.9C66.4,36.1,66.1,38.4,65.6,40.6C64.5,46.5,62.2,52.3,58.3,57C52.1,64.5,42.7,67.6,33.2,67.6'); } 100% { d: path('M-66.3,-0.3C-66.3,11.4,-66.4,24.7,-66.4,36.4C-66.4,36.4,-66.4,54.6,-66.4,54.6C-66.4,56.6,-66.4,58.5,-66.1,60.5C-65.3,66.1,-63.5,71.6,-60.4,76.3C-56,83.1,-49.1,87.5,-41.2,89C-31.9,90.8,-21.3,89.7,-13.4,84.1C-7.8,80.2,-4.1,74.2,-2,67.7C.8,59,0,49.7,0,40.6C0,37.5,-0.2,34.5,.2,31.4C.8,26.1,2.3,20.8,5,16.2C8.9,9.4,15.1,4.5,22.7,2.5C31.9,0,42.9,.7,51.2,5.7C60.8,11.4,65.9,22.9,66.3,33.9C66.4,36.1,66.1,38.4,65.6,40.6C64.5,46.5,62.2,52.3,58.3,57C52.1,64.5,42.7,67.6,33.2,67.6'); } }
@keyframes a2_do { 0% { stroke-dashoffset: -314.8px; } 3.892% { stroke-dashoffset: -314.8px; animation-timing-function: cubic-bezier(.3,0,.7,1); } 41.667% { stroke-dashoffset: -628.9px; animation-timing-function: cubic-bezier(.3,0,.7,1); } 42.917% { stroke-dashoffset: -628.9px; animation-timing-function: cubic-bezier(.3,0,.7,1); } 63.058% { stroke-dashoffset: -628.9px; animation-timing-function: cubic-bezier(.3,0,.7,1); } 75.558% { stroke-dashoffset: -314.8px; animation-timing-function: cubic-bezier(.2,0,.7,1); } 80.275% { stroke-dashoffset: -314.8px; } 100% { stroke-dashoffset: -314.8px; } }
@keyframes a2_d { 0% { d: path('M-11.3,194.5C-11.3,182.8,-11.4,-35.8,-11.4,-47.5C-11.4,-47.5,-11.4,-65.7,-11.4,-65.7C-11.4,-69.2,-10.9,-72.7,-8.4,-75.5C-5.3,-78.9,.2,-79.5,4.4,-77.9C7.6,-76.6,9.7,-73.5,10.4,-70.2C11.4,-66,10,-61.2,6.5,-58.6C4.5,-57.1,2.1,-56.6,-0.3,-56.6'); } 3.892% { d: path('M-11.3,194.5C-11.3,182.8,-11.4,-35.8,-11.4,-47.5C-11.4,-47.5,-11.4,-65.7,-11.4,-65.7C-11.4,-69.2,-10.9,-72.7,-8.4,-75.5C-5.3,-78.9,.2,-79.5,4.4,-77.9C7.6,-76.6,9.7,-73.5,10.4,-70.2C11.4,-66,10,-61.2,6.5,-58.6C4.5,-57.1,2.1,-56.6,-0.3,-56.6'); animation-timing-function: cubic-bezier(.2,0,.8,1); } 42.917% { d: path('M-11.3,199.5C-11.3,187.8,-11.4,-35.8,-11.4,-47.5C-11.4,-47.5,-11.4,-65.7,-11.4,-65.7C-11.4,-69.2,-10.9,-72.7,-8.4,-75.5C-5.3,-78.9,.2,-79.5,4.4,-77.9C7.6,-76.6,9.7,-73.5,10.4,-70.2C11.4,-66,10,-61.2,6.5,-58.6C4.5,-57.1,2.1,-56.6,-0.3,-56.6'); animation-timing-function: cubic-bezier(.3,0,.7,1); } 50.833% { d: path('M-11.2,-12C-11.2,-23.7,-11.4,-35.8,-11.4,-47.5C-11.4,-47.5,-11.4,-65.7,-11.4,-65.7C-11.4,-69.2,-10.9,-72.7,-8.4,-75.5C-5.3,-78.9,.2,-79.5,4.4,-77.9C7.6,-76.6,9.7,-73.5,10.4,-70.2C11.4,-66,10,-61.2,6.5,-58.6C4.5,-57.1,2.1,-56.6,-0.3,-56.6'); } 100% { d: path('M-11.2,-12C-11.2,-23.7,-11.4,-35.8,-11.4,-47.5C-11.4,-47.5,-11.4,-65.7,-11.4,-65.7C-11.4,-69.2,-10.9,-72.7,-8.4,-75.5C-5.3,-78.9,.2,-79.5,4.4,-77.9C7.6,-76.6,9.7,-73.5,10.4,-70.2C11.4,-66,10,-61.2,6.5,-58.6C4.5,-57.1,2.1,-56.6,-0.3,-56.6'); } }
@keyframes a3_do { 0% { stroke-dashoffset: -357px; } 3.892% { stroke-dashoffset: -357px; animation-timing-function: cubic-bezier(.3,0,.7,1); } 41.667% { stroke-dashoffset: -713.3px; animation-timing-function: cubic-bezier(.3,0,.7,1); } 42.917% { stroke-dashoffset: -713.3px; animation-timing-function: cubic-bezier(.3,0,.7,1); } 63.058% { stroke-dashoffset: -713.3px; animation-timing-function: cubic-bezier(.3,0,.7,1); } 75.558% { stroke-dashoffset: -357px; animation-timing-function: cubic-bezier(.2,0,.7,1); } 80.275% { stroke-dashoffset: -357px; } 100% { stroke-dashoffset: -357px; } }
@keyframes a3_d { 0% { d: path('M-16.6,-192.5C-16.6,-180.8,-16.6,35.8,-16.6,47.6C-16.6,47.6,-16.6,65.8,-16.6,65.8C-16.6,69.3,-16.1,72.8,-13.6,75.6C-10.5,79,-5,79.6,-0.9,78C2.4,76.6,4.4,73.6,5.2,70.3C5.9,67.1,5.5,63.6,5.5,60.3C5.5,60.3,5.5,37.2,5.5,37.2C5.5,32.6,5.4,28,5.5,23.5C5.6,21.6,6.1,19.6,6.9,17.9C8.8,14.2,12.5,12.4,16.6,12.4'); } 3.892% { d: path('M-16.6,-192.5C-16.6,-180.8,-16.6,35.8,-16.6,47.6C-16.6,47.6,-16.6,65.8,-16.6,65.8C-16.6,69.3,-16.1,72.8,-13.6,75.6C-10.5,79,-5,79.6,-0.9,78C2.4,76.6,4.4,73.6,5.2,70.3C5.9,67.1,5.5,63.6,5.5,60.3C5.5,60.3,5.5,37.2,5.5,37.2C5.5,32.6,5.4,28,5.5,23.5C5.6,21.6,6.1,19.6,6.9,17.9C8.8,14.2,12.5,12.4,16.6,12.4'); animation-timing-function: cubic-bezier(.2,0,.8,1); } 42.917% { d: path('M-16.6,-199.5C-16.6,-187.8,-16.6,35.8,-16.6,47.6C-16.6,47.6,-16.6,65.8,-16.6,65.8C-16.6,69.3,-16.1,72.8,-13.6,75.6C-10.5,79,-5,79.6,-0.9,78C2.4,76.6,4.4,73.6,5.2,70.3C5.9,67.1,5.5,63.6,5.5,60.3C5.5,60.3,5.5,37.2,5.5,37.2C5.5,32.6,5.4,28,5.5,23.5C5.6,21.6,6.1,19.6,6.9,17.9C8.8,14.2,12.5,12.4,16.6,12.4'); animation-timing-function: cubic-bezier(.3,0,.7,1); } 50.833% { d: path('M-16.7,11.8C-16.7,23.6,-16.6,35.8,-16.6,47.6C-16.6,47.6,-16.6,65.8,-16.6,65.8C-16.6,69.3,-16.1,72.8,-13.6,75.6C-10.5,79,-5,79.6,-0.9,78C2.4,76.6,4.4,73.6,5.2,70.3C5.9,67.1,5.5,63.6,5.5,60.3C5.5,60.3,5.5,37.2,5.5,37.2C5.5,32.6,5.4,28,5.5,23.5C5.6,21.6,6.1,19.6,6.9,17.9C8.8,14.2,12.5,12.4,16.6,12.4'); } 100% { d: path('M-16.7,11.8C-16.7,23.6,-16.6,35.8,-16.6,47.6C-16.6,47.6,-16.6,65.8,-16.6,65.8C-16.6,69.3,-16.1,72.8,-13.6,75.6C-10.5,79,-5,79.6,-0.9,78C2.4,76.6,4.4,73.6,5.2,70.3C5.9,67.1,5.5,63.6,5.5,60.3C5.5,60.3,5.5,37.2,5.5,37.2C5.5,32.6,5.4,28,5.5,23.5C5.6,21.6,6.1,19.6,6.9,17.9C8.8,14.2,12.5,12.4,16.6,12.4'); } }
@keyframes a4_do { 0% { stroke-dashoffset: -441.1px; } 3.892% { stroke-dashoffset: -441.1px; animation-timing-function: cubic-bezier(.3,0,.7,1); } 41.667% { stroke-dashoffset: -881.3px; animation-timing-function: cubic-bezier(.3,0,.7,1); } 42.917% { stroke-dashoffset: -881.3px; animation-timing-function: cubic-bezier(.3,0,.7,1); } 63.058% { stroke-dashoffset: -881.3px; animation-timing-function: cubic-bezier(.3,0,.7,1); } 75.558% { stroke-dashoffset: -441.1px; animation-timing-function: cubic-bezier(.2,0,.7,1); } 80.275% { stroke-dashoffset: -441.1px; } 100% { stroke-dashoffset: -441.1px; } }
@keyframes a4_d { 0% { d: path('M-44.5,195.1C-44.5,183.4,-44.5,-36.2,-44.5,-47.9C-44.5,-47.9,-44.5,-66.1,-44.5,-66.1C-44.5,-69.6,-44,-73.2,-41.5,-75.9C-38.7,-78.9,-34.9,-79.1,-31.1,-79.1C-31.1,-79.1,-20.5,-79.1,-20.5,-79.1C-20.5,-79.1,6.6,-79.1,6.6,-79.1C6.6,-79.1,21.9,-79.1,21.9,-79.1C25.7,-79.1,29.7,-78,33.1,-76.3C41.1,-72.2,44.5,-64,44,-55.3C43.5,-47,39.1,-40,31.3,-36.9C23.5,-33.7,14.6,-34.4,7.7,-39.6C2.1,-43.7,-0.2,-50.2,-0.2,-57'); } 3.892% { d: path('M-44.5,195.1C-44.5,183.4,-44.5,-36.2,-44.5,-47.9C-44.5,-47.9,-44.5,-66.1,-44.5,-66.1C-44.5,-69.6,-44,-73.2,-41.5,-75.9C-38.7,-78.9,-34.9,-79.1,-31.1,-79.1C-31.1,-79.1,-20.5,-79.1,-20.5,-79.1C-20.5,-79.1,6.6,-79.1,6.6,-79.1C6.6,-79.1,21.9,-79.1,21.9,-79.1C25.7,-79.1,29.7,-78,33.1,-76.3C41.1,-72.2,44.5,-64,44,-55.3C43.5,-47,39.1,-40,31.3,-36.9C23.5,-33.7,14.6,-34.4,7.7,-39.6C2.1,-43.7,-0.2,-50.2,-0.2,-57'); animation-timing-function: cubic-bezier(.2,0,.8,1); } 42.917% { d: path('M-44.5,201.1C-44.5,189.4,-44.5,-36.2,-44.5,-47.9C-44.5,-47.9,-44.5,-66.1,-44.5,-66.1C-44.5,-69.6,-44,-73.2,-41.5,-75.9C-38.7,-78.9,-34.9,-79.1,-31.1,-79.1C-31.1,-79.1,-20.5,-79.1,-20.5,-79.1C-20.5,-79.1,6.6,-79.1,6.6,-79.1C6.6,-79.1,21.9,-79.1,21.9,-79.1C25.7,-79.1,29.7,-78,33.1,-76.3C41.1,-72.2,44.5,-64,44,-55.3C43.5,-47,39.1,-40,31.3,-36.9C23.5,-33.7,14.6,-34.4,7.7,-39.6C2.1,-43.7,-0.2,-50.2,-0.2,-57'); animation-timing-function: cubic-bezier(.3,0,.7,1); } 50.833% { d: path('M-44.4,-12.4C-44.4,-24.1,-44.5,-36.2,-44.5,-47.9C-44.5,-47.9,-44.5,-66.1,-44.5,-66.1C-44.5,-69.6,-44,-73.2,-41.5,-75.9C-38.7,-78.9,-34.9,-79.1,-31.1,-79.1C-31.1,-79.1,-20.5,-79.1,-20.5,-79.1C-20.5,-79.1,6.6,-79.1,6.6,-79.1C6.6,-79.1,21.9,-79.1,21.9,-79.1C25.7,-79.1,29.7,-78,33.1,-76.3C41.1,-72.2,44.5,-64,44,-55.3C43.5,-47,39.1,-40,31.3,-36.9C23.5,-33.7,14.6,-34.4,7.7,-39.6C2.1,-43.7,-0.2,-50.2,-0.2,-57'); } 100% { d: path('M-44.4,-12.4C-44.4,-24.1,-44.5,-36.2,-44.5,-47.9C-44.5,-47.9,-44.5,-66.1,-44.5,-66.1C-44.5,-69.6,-44,-73.2,-41.5,-75.9C-38.7,-78.9,-34.9,-79.1,-31.1,-79.1C-31.1,-79.1,-20.5,-79.1,-20.5,-79.1C-20.5,-79.1,6.6,-79.1,6.6,-79.1C6.6,-79.1,21.9,-79.1,21.9,-79.1C25.7,-79.1,29.7,-78,33.1,-76.3C41.1,-72.2,44.5,-64,44,-55.3C43.5,-47,39.1,-40,31.3,-36.9C23.5,-33.7,14.6,-34.4,7.7,-39.6C2.1,-43.7,-0.2,-50.2,-0.2,-57'); } }
@keyframes a5_do { 0% { stroke-dashoffset: -815px; } 3.892% { stroke-dashoffset: -815px; animation-timing-function: cubic-bezier(.3,0,.7,1); } 41.667% { stroke-dashoffset: -1628.4px; animation-timing-function: cubic-bezier(.3,0,.7,1); } 42.917% { stroke-dashoffset: -1628.4px; animation-timing-function: cubic-bezier(.3,0,.7,1); } 63.058% { stroke-dashoffset: -1628.4px; animation-timing-function: cubic-bezier(.3,0,.7,1); } 75.558% { stroke-dashoffset: -815px; animation-timing-function: cubic-bezier(.2,0,.7,1); } 80.275% { stroke-dashoffset: -815px; } 100% { stroke-dashoffset: -815px; } }
@keyframes a5_d { 0% { d: path('M-99.8,251.5C-99.8,233.6,-99.6,8.8,-99.6,-9.2C-99.6,-18.4,-97.6,-27.5,-90.8,-34.2C-86.2,-38.6,-80.3,-41.4,-74.1,-42.8C-67.1,-44.4,-59.8,-43.8,-52.6,-43.8C-52.6,-43.8,-12.1,-43.8,-12.1,-43.8C-5.4,-43.8,1.5,-42.3,7.8,-39.8C14.1,-37.2,19.9,-33.2,24.3,-27.8C30,-20.8,32.6,-11.9,33.1,-2.9C33.4,2.1,33,7.1,33.2,12.1C33.4,16.2,34.3,20.5,35.7,24.4C38.2,31,42.4,36.8,48.5,40.4C56.9,45.2,67.9,45.9,77.1,43.3C84.6,41.2,90.8,36.4,94.6,29.6C97.2,24.9,98.8,19.7,99.4,14.4C99.6,12.4,99.6,10.5,99.6,8.5C99.6,8.5,99.6,-11,99.6,-11C99.6,-22,99.6,-235.6,99.6,-246.5'); } 3.892% { d: path('M-99.8,251.5C-99.8,233.6,-99.6,8.8,-99.6,-9.2C-99.6,-18.4,-97.6,-27.5,-90.8,-34.2C-86.2,-38.6,-80.3,-41.4,-74.1,-42.8C-67.1,-44.4,-59.8,-43.8,-52.6,-43.8C-52.6,-43.8,-12.1,-43.8,-12.1,-43.8C-5.4,-43.8,1.5,-42.3,7.8,-39.8C14.1,-37.2,19.9,-33.2,24.3,-27.8C30,-20.8,32.6,-11.9,33.1,-2.9C33.4,2.1,33,7.1,33.2,12.1C33.4,16.2,34.3,20.5,35.7,24.4C38.2,31,42.4,36.8,48.5,40.4C56.9,45.2,67.9,45.9,77.1,43.3C84.6,41.2,90.8,36.4,94.6,29.6C97.2,24.9,98.8,19.7,99.4,14.4C99.6,12.4,99.6,10.5,99.6,8.5C99.6,8.5,99.6,-11,99.6,-11C99.6,-22,99.6,-235.6,99.6,-246.5'); animation-timing-function: cubic-bezier(.2,0,.8,1); } 42.917% { d: path('M-99.8,257.5C-99.8,239.6,-99.6,8.8,-99.6,-9.2C-99.6,-18.4,-97.6,-27.5,-90.8,-34.2C-86.2,-38.6,-80.3,-41.4,-74.1,-42.8C-67.1,-44.4,-59.8,-43.8,-52.6,-43.8C-52.6,-43.8,-12.1,-43.8,-12.1,-43.8C-5.4,-43.8,1.5,-42.3,7.8,-39.8C14.1,-37.2,19.9,-33.2,24.3,-27.8C30,-20.8,32.6,-11.9,33.1,-2.9C33.4,2.1,33,7.1,33.2,12.1C33.4,16.3,34.3,20.5,35.7,24.4C38.2,31,42.4,36.8,48.5,40.4C56.9,45.2,67.9,45.9,77.1,43.3C84.6,41.2,90.8,36.4,94.6,29.6C97.2,24.9,98.8,19.7,99.4,14.4C99.6,12.4,99.6,10.5,99.6,8.5C99.6,8.5,99.6,-11,99.6,-11C99.6,-22,99.6,-236.6,99.6,-247.5'); animation-timing-function: cubic-bezier(.3,0,.7,1); } 50.833% { d: path('M-99.6,44.8C-99.6,26.8,-99.6,8.5,-99.6,-9.4C-99.6,-18.6,-97.6,-27.8,-90.8,-34.4C-86.2,-38.9,-80.3,-41.6,-74.1,-43C-67.1,-44.6,-59.8,-44.1,-52.6,-44.1C-52.6,-44.1,-12.1,-44.1,-12.1,-44.1C-5.4,-44.1,1.5,-42.6,7.8,-40C14.1,-37.4,19.9,-33.5,24.3,-28.1C30,-21,32.6,-12.1,33.1,-3.2C33.4,1.8,33,6.8,33.2,11.8C33.4,16,34.3,20.2,35.7,24.1C38.2,30.7,42.4,36.5,48.5,40.1C56.9,45,67.9,45.6,77.1,43.1C84.6,41,90.8,36.1,94.6,29.3C97.2,24.7,98.8,19.4,99.4,14.1C99.6,12.2,99.6,10.2,99.6,8.2C99.6,8.2,99.6,-11.3,99.6,-11.3C99.6,-22.2,99.6,-33.8,99.6,-44.8'); } 100% { d: path('M-99.6,44.8C-99.6,26.8,-99.6,8.5,-99.6,-9.4C-99.6,-18.6,-97.6,-27.8,-90.8,-34.4C-86.2,-38.9,-80.3,-41.6,-74.1,-43C-67.1,-44.6,-59.8,-44.1,-52.6,-44.1C-52.6,-44.1,-12.1,-44.1,-12.1,-44.1C-5.4,-44.1,1.5,-42.6,7.8,-40C14.1,-37.4,19.9,-33.5,24.3,-28.1C30,-21,32.6,-12.1,33.1,-3.2C33.4,1.8,33,6.8,33.2,11.8C33.4,16,34.3,20.2,35.7,24.1C38.2,30.7,42.4,36.5,48.5,40.1C56.9,45,67.9,45.6,77.1,43.1C84.6,41,90.8,36.1,94.6,29.3C97.2,24.7,98.8,19.4,99.4,14.1C99.6,12.2,99.6,10.2,99.6,8.2C99.6,8.2,99.6,-11.3,99.6,-11.3C99.6,-22.2,99.6,-33.8,99.6,-44.8'); } }
@keyframes a6_do { 0% { stroke-dashoffset: -358.8px; } 3.892% { stroke-dashoffset: -358.8px; animation-timing-function: cubic-bezier(.3,0,.7,1); } 41.667% { stroke-dashoffset: -716.9px; animation-timing-function: cubic-bezier(.3,0,.7,1); } 42.917% { stroke-dashoffset: -716.9px; animation-timing-function: cubic-bezier(.3,0,.7,1); } 63.058% { stroke-dashoffset: -716.9px; animation-timing-function: cubic-bezier(.3,0,.7,1); } 75.558% { stroke-dashoffset: -358.8px; animation-timing-function: cubic-bezier(.2,0,.7,1); } 80.275% { stroke-dashoffset: -358.8px; } 100% { stroke-dashoffset: -358.8px; } }
@keyframes a6_d { 0% { d: path('M16.6,-194C16.6,-182.2,16.6,36.2,16.6,47.9C16.6,47.9,16.6,66.1,16.6,66.1C16.6,69.7,16.1,73.2,13.6,75.9C10.5,79.3,5,80,.9,78.3C-2.4,77,-4.4,74,-5.2,70.6C-5.9,67.5,-5.5,64,-5.5,60.7C-5.5,48.4,-5.5,36.1,-5.5,23.8C-5.5,22,-6.1,20.1,-6.8,18.5C-8.7,14.6,-12.4,12.8,-16.6,12.8'); } 3.892% { d: path('M16.6,-194C16.6,-182.2,16.6,36.2,16.6,47.9C16.6,47.9,16.6,66.1,16.6,66.1C16.6,69.7,16.1,73.2,13.6,75.9C10.5,79.3,5,80,.9,78.3C-2.4,77,-4.4,74,-5.2,70.6C-5.9,67.5,-5.5,64,-5.5,60.7C-5.5,48.4,-5.5,36.1,-5.5,23.8C-5.5,22,-6.1,20.1,-6.8,18.5C-8.7,14.6,-12.4,12.8,-16.6,12.8'); animation-timing-function: cubic-bezier(.2,0,.8,1); } 42.917% { d: path('M16.6,-191C16.6,-179.2,16.6,36.2,16.6,47.9C16.6,47.9,16.6,66.1,16.6,66.1C16.6,69.7,16.1,73.2,13.6,75.9C10.5,79.3,5,80,.9,78.3C-2.4,77,-4.4,74,-5.2,70.6C-5.9,67.5,-5.5,64,-5.5,60.7C-5.5,48.4,-5.5,36.1,-5.5,23.8C-5.5,22,-6.1,20.1,-6.8,18.5C-8.7,14.6,-12.4,12.8,-16.6,12.8'); animation-timing-function: cubic-bezier(.3,0,.7,1); } 50.833% { d: path('M16.7,13C16.7,24.8,16.6,36.2,16.6,47.9C16.6,47.9,16.6,66.1,16.6,66.1C16.6,69.7,16.1,73.2,13.6,75.9C10.5,79.3,5,80,.9,78.3C-2.4,77,-4.4,74,-5.2,70.6C-5.9,67.5,-5.5,64,-5.5,60.7C-5.5,48.4,-5.5,36.1,-5.5,23.8C-5.5,22,-6.1,20.1,-6.8,18.5C-8.7,14.6,-12.4,12.8,-16.6,12.8'); } 100% { d: path('M16.7,13C16.7,24.8,16.6,36.2,16.6,47.9C16.6,47.9,16.6,66.1,16.6,66.1C16.6,69.7,16.1,73.2,13.6,75.9C10.5,79.3,5,80,.9,78.3C-2.4,77,-4.4,74,-5.2,70.6C-5.9,67.5,-5.5,64,-5.5,60.7C-5.5,48.4,-5.5,36.1,-5.5,23.8C-5.5,22,-6.1,20.1,-6.8,18.5C-8.7,14.6,-12.4,12.8,-16.6,12.8'); } }
@keyframes a7_do { 0% { stroke-dashoffset: -446.7px; } 3.892% { stroke-dashoffset: -446.7px; animation-timing-function: cubic-bezier(.3,0,.7,1); } 41.667% { stroke-dashoffset: -892.4px; animation-timing-function: cubic-bezier(.3,0,.7,1); } 42.917% { stroke-dashoffset: -892.4px; animation-timing-function: cubic-bezier(.3,0,.7,1); } 63.058% { stroke-dashoffset: -892.4px; animation-timing-function: cubic-bezier(.3,0,.7,1); } 75.558% { stroke-dashoffset: -446.7px; animation-timing-function: cubic-bezier(.2,0,.7,1); } 80.275% { stroke-dashoffset: -446.7px; } 100% { stroke-dashoffset: -446.7px; } }
@keyframes a7_d { 0% { d: path('M-11.1,-57C-11.1,-57,11,-57,11,-57C11,-52.9,9.8,-48.7,7.8,-45.1C3.4,-37.1,-5.3,-34.1,-14.1,-35C-22.2,-35.8,-28.6,-40.6,-31.5,-48.2C-32.6,-51.1,-33.4,-54.4,-33.2,-57.5C-33,-62.6,-31.3,-67.9,-28,-71.9C-25.5,-75,-22.1,-77.2,-18.2,-78.2C-15.6,-78.9,-12.9,-79.1,-10.1,-79.1C-10.1,-79.1,2,-79.1,2,-79.1C2,-79.1,32.9,-79.1,32.9,-79.1C33.4,-79.1,33.1,-77.5,33.1,-77.1C33.1,-77.1,33.1,-70.4,33.1,-70.4C33.1,-70.4,33.1,-25.3,33.1,-25.3C33.1,-21.1,33.1,191.9,33.1,196.1'); } 3.892% { d: path('M-11.1,-57C-11.1,-57,11,-57,11,-57C11,-52.9,9.8,-48.7,7.8,-45.1C3.4,-37.1,-5.3,-34.1,-14.1,-35C-22.2,-35.8,-28.6,-40.6,-31.5,-48.2C-32.6,-51.1,-33.4,-54.4,-33.2,-57.5C-33,-62.6,-31.3,-67.9,-28,-71.9C-25.5,-75,-22.1,-77.2,-18.2,-78.2C-15.6,-78.9,-12.9,-79.1,-10.1,-79.1C-10.1,-79.1,2,-79.1,2,-79.1C2,-79.1,32.9,-79.1,32.9,-79.1C33.4,-79.1,33.1,-77.5,33.1,-77.1C33.1,-77.1,33.1,-70.4,33.1,-70.4C33.1,-70.4,33.1,-25.3,33.1,-25.3C33.1,-21.1,33.1,191.9,33.1,196.1'); animation-timing-function: cubic-bezier(.2,0,.8,1); } 42.917% { d: path('M-11.1,-57C-11.1,-57,11,-57,11,-57C11,-52.9,9.8,-48.7,7.8,-45.1C3.4,-37.1,-5.3,-34.1,-14.1,-35C-22.2,-35.8,-28.6,-40.6,-31.5,-48.2C-32.6,-51.1,-33.4,-54.4,-33.2,-57.5C-33,-62.6,-31.3,-67.9,-28,-71.9C-25.5,-75,-22.1,-77.2,-18.2,-78.2C-15.6,-78.9,-12.9,-79.1,-10.1,-79.1C-10.1,-79.1,2,-79.1,2,-79.1C2,-79.1,32.9,-79.1,32.9,-79.1C33.4,-79.1,33.1,-77.5,33.1,-77.1C33.1,-77.1,33.1,-70.4,33.1,-70.4C33.1,-70.4,33.1,-25.3,33.1,-25.3C33.1,-21.1,33.1,200.9,33.1,205.1'); animation-timing-function: cubic-bezier(.3,0,.7,1); } 50.833% { d: path('M-11.1,-57C-11.1,-57,11,-57,11,-57C11,-52.9,9.8,-48.7,7.8,-45.1C3.4,-37.1,-5.3,-34.1,-14.1,-35C-22.2,-35.8,-28.6,-40.6,-31.5,-48.2C-32.6,-51.1,-33.4,-54.4,-33.2,-57.5C-33,-62.6,-31.3,-67.9,-28,-71.9C-25.5,-75,-22.1,-77.2,-18.2,-78.2C-15.6,-78.9,-12.9,-79.1,-10.1,-79.1C-10.1,-79.1,2,-79.1,2,-79.1C2,-79.1,32.9,-79.1,32.9,-79.1C33.4,-79.1,33.1,-77.5,33.1,-77.1C33.1,-77.1,33.1,-70.4,33.1,-70.4C33.1,-70.4,33.1,-25.3,33.1,-25.3C33.1,-21.1,32.8,-16.1,32.8,-11.9'); } 100% { d: path('M-11.1,-57C-11.1,-57,11,-57,11,-57C11,-52.9,9.8,-48.7,7.8,-45.1C3.4,-37.1,-5.3,-34.1,-14.1,-35C-22.2,-35.8,-28.6,-40.6,-31.5,-48.2C-32.6,-51.1,-33.4,-54.4,-33.2,-57.5C-33,-62.6,-31.3,-67.9,-28,-71.9C-25.5,-75,-22.1,-77.2,-18.2,-78.2C-15.6,-78.9,-12.9,-79.1,-10.1,-79.1C-10.1,-79.1,2,-79.1,2,-79.1C2,-79.1,32.9,-79.1,32.9,-79.1C33.4,-79.1,33.1,-77.5,33.1,-77.1C33.1,-77.1,33.1,-70.4,33.1,-70.4C33.1,-70.4,33.1,-25.3,33.1,-25.3C33.1,-21.1,32.8,-16.1,32.8,-11.9'); } }
@keyframes a8_do { 0% { stroke-dashoffset: -504.4px; } 3.892% { stroke-dashoffset: -504.4px; animation-timing-function: cubic-bezier(.3,0,.7,1); } 41.667% { stroke-dashoffset: -1007.8px; animation-timing-function: cubic-bezier(.3,0,.7,1); } 42.917% { stroke-dashoffset: -1007.8px; animation-timing-function: cubic-bezier(.3,0,.7,1); } 63.058% { stroke-dashoffset: -1007.8px; animation-timing-function: cubic-bezier(.3,0,.7,1); } 75.558% { stroke-dashoffset: -504.4px; animation-timing-function: cubic-bezier(.2,0,.7,1); } 80.275% { stroke-dashoffset: -504.4px; } 100% { stroke-dashoffset: -504.4px; } }
@keyframes a8_d { 0% { d: path('M-11.1,178.6C-11.1,167.5,-11.1,-51.4,-11.1,-62.4C-11.1,-62.5,5.4,-62.4,6.8,-62.4C6.8,-62.4,10.5,-62.4,10.5,-62.4C11,-62.4,11.1,-62.6,11.1,-62.1C11.1,-62.1,11.1,-55,11.1,-55C11.1,-46.4,11.1,170,11.1,178.6'); } 3.892% { d: path('M-11.1,178.6C-11.1,167.5,-11.1,-51.4,-11.1,-62.4C-11.1,-62.5,5.4,-62.4,6.8,-62.4C6.8,-62.4,10.5,-62.4,10.5,-62.4C11,-62.4,11.1,-62.6,11.1,-62.1C11.1,-62.1,11.1,-55,11.1,-55C11.1,-46.4,11.1,170,11.1,178.6'); animation-timing-function: cubic-bezier(.2,0,.8,1); } 42.917% { d: path('M-11.1,187.6C-11.1,176.5,-11.1,-51.4,-11.1,-62.4C-11.1,-62.5,5.4,-62.4,6.8,-62.4C6.8,-62.4,10.5,-62.4,10.5,-62.4C11,-62.4,11.1,-62.6,11.1,-62.1C11.1,-62.1,11.1,-55,11.1,-55C11.1,-46.4,11.1,179,11.1,187.6'); animation-timing-function: cubic-bezier(.3,0,.7,1); } 50.833% { d: path('M-11.1,-28.9C-11.1,-40,-11.1,-51.4,-11.1,-62.4C-11.1,-62.5,5.4,-62.4,6.8,-62.4C6.8,-62.4,10.5,-62.4,10.5,-62.4C11,-62.4,11.1,-62.6,11.1,-62.1C11.1,-62.1,11.1,-55,11.1,-55C11.1,-46.4,11.1,-37.5,11.1,-28.9'); } 100% { d: path('M-11.1,-28.9C-11.1,-40,-11.1,-51.4,-11.1,-62.4C-11.1,-62.5,5.4,-62.4,6.8,-62.4C6.8,-62.4,10.5,-62.4,10.5,-62.4C11,-62.4,11.1,-62.6,11.1,-62.1C11.1,-62.1,11.1,-55,11.1,-55C11.1,-46.4,11.1,-37.5,11.1,-28.9'); } }
@keyframes a9_do { 0% { stroke-dashoffset: -498.5px; } 3.892% { stroke-dashoffset: -498.5px; animation-timing-function: cubic-bezier(.3,0,.7,1); } 41.667% { stroke-dashoffset: -996.1px; animation-timing-function: cubic-bezier(.3,0,.7,1); } 42.917% { stroke-dashoffset: -996.1px; animation-timing-function: cubic-bezier(.3,0,.7,1); } 63.058% { stroke-dashoffset: -996.1px; animation-timing-function: cubic-bezier(.3,0,.7,1); } 75.558% { stroke-dashoffset: -498.5px; animation-timing-function: cubic-bezier(.2,0,.7,1); } 80.275% { stroke-dashoffset: -498.5px; } 100% { stroke-dashoffset: -498.5px; } }
@keyframes a9_d { 0% { d: path('M518.4,397.6C518.4,397.6,518.4,-100.4,518.4,-100.4'); } 3.892% { d: path('M518.4,397.6C518.4,397.6,518.4,-100.4,518.4,-100.4'); animation-timing-function: cubic-bezier(.2,0,.8,1); } 42.917% { d: path('M518.4,406.6C518.4,406.6,518.4,-100.4,518.4,-100.4'); animation-timing-function: cubic-bezier(.3,0,.7,1); } 50.833% { d: path('M517.4,191.1C517.4,191.1,517.4,102.6,517.4,102.6'); } 100% { d: path('M517.4,191.1C517.4,191.1,517.4,102.6,517.4,102.6'); } }
@keyframes a10_v { 0% { visibility: hidden; animation-timing-function: steps(1); } .433% { visibility: visible; animation-timing-function: steps(1); } 87.225% { visibility: hidden; animation-timing-function: steps(1); } 100% { visibility: hidden; animation-timing-function: steps(1); } }
@keyframes a11_t { 0% { transform: translate(429.9px,146.4px); } 83.15% { transform: translate(429.9px,146.4px); animation-timing-function: cubic-bezier(.3,0,.8,.8); } 87.083% { transform: translate(429.9px,446.4px); } 100% { transform: translate(429.9px,446.4px); } }
@keyframes a12_do { 0% { stroke-dashoffset: -360.4px; animation-timing-function: cubic-bezier(.3,0,.7,1); } 39.533% { stroke-dashoffset: -720.1px; animation-timing-function: cubic-bezier(.2,0,.7,1); } 61.925% { stroke-dashoffset: -720.1px; animation-timing-function: cubic-bezier(.3,0,.7,1); } 74.858% { stroke-dashoffset: -360.4px; } 100% { stroke-dashoffset: -360.4px; } }
@keyframes a13_t { 0% { transform: translate(252.9px,168.7px); } 77.625% { transform: translate(252.9px,168.7px); animation-timing-function: cubic-bezier(.3,0,.7,1); } 82.567% { transform: translate(252.9px,429.7px); } 100% { transform: translate(252.9px,429.7px); } }
@keyframes a14_do { 0% { stroke-dashoffset: -140.3px; animation-timing-function: cubic-bezier(.3,0,.7,1); } 39.533% { stroke-dashoffset: -280.4px; animation-timing-function: cubic-bezier(.2,0,.7,1); } 61.925% { stroke-dashoffset: -280.4px; animation-timing-function: cubic-bezier(.3,0,.7,1); } 74.858% { stroke-dashoffset: -140.3px; } 100% { stroke-dashoffset: -140.3px; } }
@keyframes a15_t { 0% { transform: translate(352.9px,239.1px) scale(0,0) translate(-52.4px,.6px); animation-timing-function: cubic-bezier(.3,0,.7,1); } 1.25% { transform: translate(352.9px,239.1px) scale(1.2,1.2) translate(-52.4px,.6px); animation-timing-function: cubic-bezier(.3,0,.7,1); } 2.917% { transform: translate(352.9px,239.1px) scale(1,1) translate(-52.4px,.6px); } 100% { transform: translate(352.9px,239.1px) scale(1,1) translate(-52.4px,.6px); } }
@keyframes a15_v { 0% { visibility: visible; animation-timing-function: steps(1); } 3.892% { visibility: hidden; animation-timing-function: steps(1); } 100% { visibility: hidden; animation-timing-function: steps(1); } }
@keyframes a16_t { 0% { transform: translate(551.9px,194.8px) scale(0,0) translate(-52.4px,.6px); animation-timing-function: cubic-bezier(.3,0,.7,1); } 1.25% { transform: translate(551.9px,194.8px) scale(1.2,1.2) translate(-52.4px,.6px); animation-timing-function: cubic-bezier(.3,0,.7,1); } 2.917% { transform: translate(551.9px,194.8px) scale(1,1) translate(-52.4px,.6px); } 100% { transform: translate(551.9px,194.8px) scale(1,1) translate(-52.4px,.6px); } }
@keyframes a16_v { 0% { visibility: visible; animation-timing-function: steps(1); } 3.892% { visibility: hidden; animation-timing-function: steps(1); } 100% { visibility: hidden; animation-timing-function: steps(1); } }
@keyframes a17_t { 0% { transform: translate(463.5px,239px) scale(0,0) translate(-52.4px,.6px); animation-timing-function: cubic-bezier(.3,0,.7,1); } 1.25% { transform: translate(463.5px,239px) scale(1.2,1.2) translate(-52.4px,.6px); animation-timing-function: cubic-bezier(.3,0,.7,1); } 2.917% { transform: translate(463.5px,239px) scale(1,1) translate(-52.4px,.6px); } 100% { transform: translate(463.5px,239px) scale(1,1) translate(-52.4px,.6px); } }
@keyframes a17_v { 0% { visibility: visible; animation-timing-function: steps(1); } 3.892% { visibility: hidden; animation-timing-function: steps(1); } 100% { visibility: hidden; animation-timing-function: steps(1); } }
</style><g visibility="hidden" transform="translate(55.5,92.5)" style="animation: 12s linear both a0_t, 12s linear forwards a0_v;"><g transform="translate(75.9,101.1)"><path fill="none" d="M-66.4-204.8c0 11.8 0 229.5 0 241.2c0 0 0 18.2 0 18.2c0 2 0 3.9 .3 5.9c.8 5.6 2.6 11.1 5.7 15.8c4.4 6.8 11.3 11.2 19.2 12.7c9.3 1.8 19.9 .7 27.8-4.9c5.6-3.9 9.3-9.9 11.4-16.3c2.8-8.8 2-18.1 2-27.2c0-3.1-0.2-6.1 .2-9.2c.6-5.3 2.1-10.6 4.8-15.2c3.9-6.8 10.1-11.7 17.7-13.7c9.2-2.5 20.2-1.8 28.5 3.2c9.6 5.7 14.7 17.2 15.1 28.2c.1 2.2-0.2 4.5-0.7 6.7c-1.1 5.9-3.4 11.7-7.3 16.4c-6.2 7.5-15.6 10.6-25.1 10.6" stroke="#fff" stroke-width="19" stroke-linecap="round" stroke-dasharray="546.1" stroke-dashoffset="-546.6" style="animation: 12s linear both a1_do, 12s linear both a1_d;"/></g><g transform="translate(109.4,203.1)"><path fill="none" d="M-11.3 194.5c0-11.7-0.1-230.3-0.1-242c0 0 0-18.2 0-18.2c0-3.5 .5-7 3-9.8c3.1-3.4 8.6-4 12.8-2.4c3.2 1.3 5.3 4.4 6 7.7c1 4.2-0.4 9-3.9 11.6c-2 1.5-4.4 2-6.8 2" stroke="#fff" stroke-width="19" stroke-linecap="round" stroke-dasharray="314.5" stroke-dashoffset="-314.8" style="animation: 12s linear both a2_do, 12s linear both a2_d;"/></g><g transform="translate(48.4,90) scale(.99626,1.00083)"><path fill="none" d="M-16.6-192.5c0 11.7 0 228.3 0 240.1c0 0 0 18.2 0 18.2c0 3.5 .5 7 3 9.8c3.1 3.4 8.6 4 12.7 2.4c3.3-1.4 5.3-4.4 6.1-7.7c.7-3.2 .3-6.7 .3-10c0 0 0-23.1 0-23.1c0-4.6-0.1-9.2 0-13.7c.1-1.9 .6-3.9 1.4-5.6c1.9-3.7 5.6-5.5 9.7-5.5" stroke="#fff" stroke-width="19" stroke-linecap="round" stroke-dasharray="356.6" stroke-dashoffset="-357" style="animation: 12s linear both a3_do, 12s linear both a3_d;"/></g><g transform="translate(231,203.5)"><path fill="none" d="M-44.5 195.1c0-11.7 0-231.3 0-243c0 0 0-18.2 0-18.2c0-3.5 .5-7.1 3-9.8c2.8-3 6.6-3.2 10.4-3.2c0 0 10.6 0 10.6 0c0 0 27.1 0 27.1 0c0 0 15.3 0 15.3 0c3.8 0 7.8 1.1 11.2 2.8c8 4.1 11.4 12.3 10.9 21c-0.5 8.3-4.9 15.3-12.7 18.4c-7.8 3.2-16.7 2.5-23.6-2.7c-5.6-4.1-7.9-10.6-7.9-17.4" stroke="#fff" stroke-width="19" stroke-linecap="round" stroke-dasharray="440.7" stroke-dashoffset="-441.1" style="animation: 12s linear both a4_do, 12s linear both a4_d;"/></g><g transform="translate(263.9,146.1)"><path fill="none" d="M-99.8 251.5c0-17.9 .2-242.7 .2-260.7c0-9.2 2-18.3 8.8-25c4.6-4.4 10.5-7.2 16.7-8.6c7-1.6 14.3-1 21.5-1c0 0 40.5 0 40.5 0c6.7 0 13.6 1.5 19.9 4c6.3 2.6 12.1 6.6 16.5 12c5.7 7 8.3 15.9 8.8 24.9c.3 5-0.1 10 .1 15c.2 4.1 1.1 8.4 2.5 12.3c2.5 6.6 6.7 12.4 12.8 16c8.4 4.8 19.4 5.5 28.6 2.9c7.5-2.1 13.7-6.9 17.5-13.7c2.6-4.7 4.2-9.9 4.8-15.2c.2-2 .2-3.9 .2-5.9c0 0 0-19.5 0-19.5c0-11 0-224.6 0-235.5" stroke="#fff" stroke-width="19" stroke-linecap="round" stroke-dasharray="814.2" stroke-dashoffset="-815" style="animation: 12s linear both a5_do, 12s linear both a5_d;"/></g><g transform="translate(324.8,89.5)"><path fill="none" d="M16.6-194c0 11.8 0 230.2 0 241.9c0 0 0 18.2 0 18.2c0 3.6-0.5 7.1-3 9.8c-3.1 3.4-8.6 4.1-12.7 2.4c-3.3-1.3-5.3-4.3-6.1-7.7c-0.7-3.1-0.3-6.6-0.3-9.9c0-12.3 0-24.6 0-36.9c0-1.8-0.6-3.7-1.3-5.3c-1.9-3.9-5.6-5.8-9.8-5.8" stroke="#fff" stroke-width="19" stroke-linecap="round" stroke-dasharray="358.4" stroke-dashoffset="-358.8" style="animation: 12s linear both a6_do, 12s linear both a6_d;"/></g><g transform="translate(418.9,203.5)"><path fill="none" d="M-11.1-57c0 0 22.1 0 22.1 0c0 4.1-1.2 8.3-3.2 11.9c-4.4 8-13.1 11-21.9 10.1c-8.1-0.8-14.5-5.6-17.4-13.2c-1.1-2.9-1.9-6.2-1.7-9.3c.2-5.1 1.9-10.4 5.2-14.4c2.5-3.1 5.9-5.3 9.8-6.3c2.6-0.7 5.3-0.9 8.1-0.9c0 0 12.1 0 12.1 0c0 0 30.9 0 30.9 0c.5 0 .2 1.6 .2 2c0 0 0 6.7 0 6.7c0 0 0 45.1 0 45.1c0 4.2 0 217.2 0 221.4" stroke="#fff" stroke-width="19" stroke-linecap="round" stroke-dasharray="446.2" stroke-dashoffset="-446.7" style="animation: 12s linear both a7_do, 12s linear both a7_d;"/></g><g transform="translate(485.2,220)"><path fill="none" d="M-11.1 178.6c0-11.1 0-230 0-241c0-0.1 16.5 0 17.9 0c0 0 3.7 0 3.7 0c.5 0 .6-0.2 .6 .3c0 0 0 7.1 0 7.1c0 8.6 0 225 0 233.6" stroke="#fff" stroke-width="19" stroke-linecap="round" stroke-dasharray="503.9" stroke-dashoffset="-504.4" style="animation: 12s linear both a8_do, 12s linear both a8_d;"/></g><g><path fill="none" d="M518.4 397.6c0 0 0-498 0-498" stroke="#fff" stroke-width="19" stroke-linecap="round" stroke-dasharray="498" stroke-dashoffset="-498.5" style="animation: 12s linear both a9_do, 12s linear both a9_d;"/></g></g><g visibility="hidden" transform="translate(55.5,92.5)" style="animation: 12s linear forwards a10_v;"><g transform="translate(429.9,146.4)" style="animation: 12s linear both a11_t;"><path fill="none" d="M66.4-44.1c0 11.1 0 22.1 0 33.2c0 0-16.5 0-17.9 0c0 0-3.7 0-3.7 0c-0.5 0-0.5 .1-0.5-0.5c0 0 0-9.2 0-9.2c0 0 0-10.7 0-10.7c0-1.3 0-2.6-0.3-3.9c-0.6-3.2-2.4-6.3-5.4-7.8c-3.2-1.5-7-1.1-10.4-1.1c0 0-47.8 0-47.8 0c-7 0-13.9 .5-20.5 3c-7.2 2.8-13.3 7.6-17.7 13.9c-5.3 7.8-8.3 17.6-8.5 27c-0.1 1.7 .1 3.5 .3 5.2c.7 5.2 2.1 10.4 4.2 15.2c2.8 6.4 7.1 12.1 12.7 16.3c7.5 5.5 16.8 7.7 26 7.9c9.4 .1 19-1.8 26.9-7.1c5.8-4 10.3-9.7 13.3-16.1c3.1-6.4 5-13.9 5-21.1" stroke="#fff" stroke-width="19" stroke-linecap="round" stroke-dasharray="360.1" stroke-dashoffset="-360.4" style="animation: 12s linear both a12_do;"/></g><g transform="translate(252.9,168.7)" style="animation: 12s linear both a13_t;"><path fill="none" d="M44.2-22.1c0 9.3-2 18.7-7.5 26.4c-4 5.8-9.8 10.1-16.1 13c-4.9 2.2-10.1 3.6-15.4 4.4c-1.8 .2-3.6 .4-5.5 .4c-9.2-0.2-18.8-3.1-26.5-8.2c-5-3.4-9.3-7.9-12.2-13.2c-3.8-7-5.2-15-5.2-22.8" stroke="#fff" stroke-width="19" stroke-linecap="round" stroke-dasharray="140.2" stroke-dashoffset="-140.3" style="animation: 12s linear both a14_do;"/></g></g><g visibility="visible" transform="translate(352.9,239.1) scale(0,0) translate(-52.4,.6)" style="animation: 12s linear both a15_t, 12s linear forwards a15_v;"><g transform="translate(52.4,-0.6) scale(.67377,.67377)"><path d="M0-14.1c7.8 0 14.1 6.3 14.1 14.1c0 7.8-6.3 14.1-14.1 14.1c-7.8 0-14.1-6.3-14.1-14.1c0-7.8 6.3-14.1 14.1-14.1Z" fill="#fff" stroke="none"/></g></g><g visibility="visible" transform="translate(551.9,194.8) scale(0,0) translate(-52.4,.6)" style="animation: 12s linear both a16_t, 12s linear forwards a16_v;"><g transform="translate(52.4,-0.6) scale(.67377,.67377)"><path d="M0-14.1c7.8 0 14.1 6.3 14.1 14.1c0 7.8-6.3 14.1-14.1 14.1c-7.8 0-14.1-6.3-14.1-14.1c0-7.8 6.3-14.1 14.1-14.1Z" fill="#fff" stroke="none"/></g></g><g visibility="visible" transform="translate(463.5,239) scale(0,0) translate(-52.4,.6)" style="animation: 12s linear both a17_t, 12s linear forwards a17_v;"><g transform="translate(52.4,-0.6) scale(.67377,.67377)"><path d="M0-14.1c7.8 0 14.1 6.3 14.1 14.1c0 7.8-6.3 14.1-14.1 14.1c-7.8 0-14.1-6.3-14.1-14.1c0-7.8 6.3-14.1 14.1-14.1Z" fill="#fff" stroke="none"/></g></g></svg>